<?xml version="1.0" standalone="no"?>
<!DOCTYPE svg PUBLIC "-//W3C//DTD SVG 20010904//EN"
 "http://www.w3.org/TR/2001/REC-SVG-20010904/DTD/svg10.dtd">
<svg version="1.0" xmlns="http://www.w3.org/2000/svg"
 width="1516.000000pt" height="640.000000pt" viewBox="0 0 1516.000000 640.000000"
 preserveAspectRatio="xMidYMid meet">

<g transform="translate(0.000000,640.000000) scale(0.100000,-0.100000)"
fill="#000000" stroke="none">
<path d="M1445 6390 c-27 -5 -86 -9 -130 -9 -77 -2 -224 -17 -232 -25 -11 -10
-55 -199 -78 -331 -52 -296 -54 -382 -11 -432 38 -43 56 -26 56 52 0 36 7 81
14 100 28 67 75 40 162 -93 148 -223 270 -525 297 -732 12 -98 0 -143 -54
-198 -71 -71 -103 -53 -129 73 -43 213 -194 564 -289 668 -19 21 -32 27 -50
22 -15 -4 -30 0 -42 11 -17 15 -18 15 -24 -12 -3 -16 -10 -45 -15 -65 -10 -36
-46 -234 -100 -542 -16 -93 -32 -177 -35 -188 -4 -10 -19 -96 -36 -191 -16
-95 -45 -263 -64 -373 -19 -110 -49 -276 -65 -370 -16 -93 -45 -260 -65 -370
-19 -110 -49 -279 -65 -375 -16 -96 -32 -184 -35 -195 -3 -11 -19 -101 -35
-200 -76 -460 -90 -543 -100 -585 -5 -25 -22 -117 -36 -205 -14 -88 -41 -250
-60 -360 -19 -110 -47 -281 -64 -380 -16 -99 -32 -189 -35 -200 -6 -23 -53
-320 -95 -605 -27 -177 -28 -196 -14 -211 31 -35 126 -45 533 -59 354 -12 494
4 516 57 9 23 48 230 81 433 13 85 31 184 39 220 8 36 26 146 40 245 14 99 29
209 35 245 5 36 10 121 10 190 0 102 -3 132 -18 160 -21 40 -72 70 -118 70
-39 0 -82 33 -100 76 -22 52 -19 57 29 50 90 -15 277 -104 277 -134 0 -23 63
-52 115 -53 28 -1 63 -4 79 -8 l30 -6 -27 -12 c-31 -14 -35 -29 -9 -37 36 -11
225 -28 439 -40 122 -6 225 -14 227 -17 6 -6 17 -72 70 -419 19 -124 46 -299
60 -390 14 -91 32 -196 40 -235 9 -38 25 -121 36 -184 12 -63 28 -127 36 -142
17 -34 50 -42 264 -64 188 -19 632 -17 719 4 l54 13 -6 117 c-6 100 -23 237
-41 321 -3 14 -11 50 -17 80 -18 93 -29 130 -39 130 -6 0 -10 -18 -10 -40 0
-22 -3 -40 -8 -40 -4 0 -19 27 -34 61 -31 70 -49 73 -60 11 -22 -128 -241
-320 -518 -455 -112 -55 -135 -71 -127 -92 5 -12 24 -15 89 -15 69 0 91 4 130
25 32 17 63 25 96 25 55 0 157 -29 145 -41 -4 -4 -53 -15 -108 -25 -55 -9
-120 -20 -145 -25 -25 -4 -84 -8 -132 -8 -83 -1 -89 0 -122 29 -39 34 -82 140
-92 223 l-6 52 54 0 c44 1 67 9 132 44 192 107 307 281 271 412 -7 24 -19 58
-26 76 -16 39 0 76 46 105 45 29 150 16 288 -34 15 -6 45 -31 66 -55 22 -25
42 -39 46 -34 3 6 1 46 -5 88 -6 43 -15 133 -19 201 -7 108 -11 126 -31 147
-18 19 -27 22 -41 15 -27 -15 -31 -43 -18 -125 12 -69 8 -104 -9 -79 -24 37
-130 44 -262 19 -69 -13 -310 -64 -405 -85 -47 -11 -126 -13 -149 -4 -11 4
-16 19 -16 46 0 64 34 87 197 136 76 22 170 46 208 52 100 16 285 62 285 70 0
27 -286 15 -440 -18 -89 -19 -202 -22 -207 -6 -8 22 47 71 114 102 79 36 210
74 373 107 63 13 137 29 163 35 26 7 59 9 72 6 23 -6 24 -10 22 -77 -2 -67 0
-72 27 -95 15 -14 33 -23 40 -21 17 6 18 93 1 197 -8 52 -29 187 -45 300 -16
113 -36 223 -45 245 -23 56 -53 85 -87 85 -15 0 -28 2 -28 4 0 3 13 18 29 34
36 35 53 94 49 170 -4 71 -27 82 -59 28 -26 -44 -39 -46 -39 -6 0 117 -159
-138 -228 -365 -36 -119 -174 -356 -290 -499 -50 -61 -134 -136 -152 -136 -3
0 -30 20 -59 45 -75 64 -121 75 -341 81 -205 6 -230 9 -230 27 0 7 19 35 41
62 53 64 69 102 69 165 0 71 -20 112 -94 188 -122 127 -140 174 -83 214 29 21
42 23 153 23 117 0 123 -1 188 -34 107 -54 153 -132 192 -325 21 -106 34 -113
131 -71 41 19 80 50 144 113 73 75 94 105 138 193 79 159 96 287 59 469 -14
72 -55 158 -85 177 -19 13 -29 14 -50 4 -33 -15 -197 -13 -283 4 -36 7 -83 16
-104 20 -55 9 -96 53 -96 102 0 67 7 79 43 75 25 -2 44 6 85 37 71 54 166 75
306 69 134 -6 185 -29 298 -135 121 -115 148 -125 148 -58 0 49 14 50 45 5 15
-22 32 -40 36 -40 20 0 -3 261 -37 425 -3 17 -18 111 -34 210 -26 169 -53 307
-79 401 -15 57 -52 94 -93 94 l-33 1 31 27 c46 39 54 61 54 144 0 178 -66 403
-101 347 -13 -21 -10 -170 6 -309 8 -69 15 -133 15 -142 0 -16 -12 -18 -107
-18 -112 0 -286 -26 -375 -56 -79 -26 -160 -15 -261 35 -45 22 -90 41 -99 41
-28 0 -38 -33 -38 -119 0 -78 35 -431 46 -461 10 -29 110 -731 128 -902 7 -65
7 -67 -20 -85 -25 -16 -56 -18 -281 -21 l-253 -3 6 43 c3 24 14 115 25 203 38
309 78 613 114 875 71 519 80 596 69 624 -6 15 -9 15 -30 1 -33 -21 -51 -19
-58 9 -7 30 -88 69 -188 92 -94 21 -133 56 -117 103 17 47 190 196 266 227 35
15 38 15 54 -5 16 -19 27 -91 28 -169 0 -13 5 -48 11 -78 16 -78 37 -86 104
-40 61 42 93 48 376 76 291 28 386 47 478 94 53 27 92 106 95 190 2 96 -101
724 -148 893 -20 73 -35 73 -35 2 0 -27 -4 -49 -8 -49 -4 0 -16 31 -25 68 -17
65 -31 92 -49 92 -4 0 -8 -8 -8 -17 0 -31 -47 -120 -71 -137 -56 -38 -69 -21
-94 126 -9 51 -20 97 -24 103 -5 5 -14 28 -21 50 -20 64 -74 165 -149 282
l-70 108 85 3 c105 3 184 -17 213 -54 12 -15 21 -32 21 -39 0 -7 7 -19 16 -26
14 -12 19 -9 39 15 l23 29 21 -34 c22 -35 30 -60 76 -242 15 -59 29 -106 32
-104 2 2 -1 35 -7 73 -6 38 -12 83 -15 99 -35 272 -39 287 -82 344 -35 45 -90
68 -203 82 -110 14 -701 21 -775 9z m-231 -56 c12 -5 16 -20 16 -61 0 -66 14
-94 86 -175 87 -97 148 -189 214 -324 103 -210 144 -347 174 -584 33 -255 38
-285 52 -312 19 -36 2 -76 -38 -95 -32 -16 -62 -7 -52 16 18 45 16 100 -5 130
-12 16 -33 60 -46 98 -14 37 -30 77 -35 88 -5 11 -32 85 -61 165 -84 239 -216
475 -328 584 -42 42 -56 49 -86 48 -21 -1 -38 4 -41 12 -5 14 30 128 71 226
17 40 29 88 31 125 1 33 3 61 3 63 2 4 29 2 45 -4z m407 -4 c15 -9 17 -15 9
-30 -19 -36 -110 -34 -110 3 0 34 59 49 101 27z m263 -41 c12 -40 115 -233
156 -294 115 -171 170 -420 125 -568 -19 -65 -23 -69 -46 -57 -31 17 -58 82
-75 181 -20 119 -39 167 -121 314 -162 293 -191 362 -165 403 16 24 77 63 96
60 12 -2 23 -16 30 -39z m-374 -76 c147 -73 355 -373 426 -612 14 -47 29 -100
34 -117 18 -56 12 -188 -11 -241 -33 -79 -103 -137 -124 -104 -6 11 -44 157
-79 306 -41 171 -147 409 -256 570 -51 75 -110 184 -110 203 0 29 56 27 120
-5z m986 -790 c14 -22 19 -53 22 -136 6 -147 0 -171 -48 -203 -22 -15 -77 -37
-122 -51 -143 -41 -279 -81 -392 -113 -59 -17 -116 -35 -126 -40 -26 -14 -30
-13 -30 9 0 29 85 127 205 235 244 220 389 326 446 326 18 0 33 -9 45 -27z
m-1270 -518 c14 -49 39 -133 54 -185 16 -52 34 -109 41 -127 12 -30 11 -34
-11 -58 -62 -66 -87 -33 -259 340 -60 129 -88 166 -117 159 -22 -6 -24 -3 -24
26 0 32 46 177 83 263 l22 50 92 -189 c50 -104 104 -229 119 -279z m1380 -70
l7 -241 -114 -18 c-63 -9 -130 -21 -149 -26 -19 -5 -124 -24 -233 -41 -268
-42 -280 -37 -276 135 3 140 23 166 172 215 201 66 381 110 455 111 48 0 96
21 106 45 3 9 6 31 6 48 0 19 4 27 9 22 5 -6 13 -118 17 -250z m-1638 1 c80
-128 161 -348 148 -402 -14 -56 -119 -59 -186 -5 -49 39 -65 39 -76 0 -10 -34
-38 -59 -51 -45 -26 26 10 204 52 254 36 43 46 76 52 175 3 48 9 87 13 87 4 0
26 -29 48 -64z m-14 -491 c48 -20 235 -62 421 -94 l150 -26 7 -45 c3 -25 7
-125 7 -223 l1 -177 -22 5 c-43 9 -238 35 -265 35 -21 0 -24 -2 -13 -15 19
-23 164 -65 224 -65 68 0 116 -10 116 -23 0 -6 -20 -30 -45 -53 -72 -69 -89
-69 -420 1 -206 43 -276 55 -334 55 -49 0 -81 -21 -81 -52 0 -11 -4 -16 -10
-13 -19 12 -10 58 21 107 33 51 56 151 79 348 17 142 29 187 57 220 28 34 53
37 107 15z m1176 -516 c170 -136 336 -303 441 -444 72 -96 149 -215 149 -230
0 -4 -46 -5 -102 -3 -147 7 -214 37 -423 188 -50 36 -114 76 -142 90 -46 22
-54 31 -69 75 -11 34 -18 92 -21 180 -2 72 -5 165 -6 207 -3 69 -2 76 13 65 9
-7 81 -64 160 -128z m593 122 c33 -27 49 -80 73 -246 14 -93 29 -186 32 -205
4 -19 7 -82 7 -140 0 -88 -3 -105 -16 -108 -39 -7 -139 110 -139 164 0 34 38
76 80 89 19 6 28 25 13 25 -5 0 -47 5 -95 10 -107 12 -197 54 -229 107 -39 62
-9 80 154 91 53 4 98 12 100 17 1 6 -42 15 -98 22 -165 19 -237 34 -290 58
-113 51 -93 92 60 125 65 14 329 8 348 -9z m-1718 -321 c144 -28 250 -54 325
-80 48 -17 108 -30 133 -30 25 0 49 -4 52 -10 9 -14 -25 -123 -45 -144 -21
-22 -53 -17 -240 34 -268 73 -420 100 -493 86 -43 -8 -72 -44 -64 -78 9 -34
78 -74 160 -93 198 -47 267 -91 324 -206 55 -113 57 -104 -61 -220 -44 -44
-77 -85 -80 -101 -3 -16 -8 -39 -11 -53 -3 -15 -50 -69 -109 -128 -111 -110
-139 -154 -167 -262 -25 -93 -24 -135 6 -260 49 -209 189 -423 340 -520 98
-64 100 -68 77 -285 -6 -63 -16 -191 -22 -285 -11 -194 -21 -235 -60 -259 -52
-30 -252 -220 -408 -386 -157 -168 -207 -229 -213 -265 -6 -29 -68 -31 -148
-5 -36 12 -70 26 -75 30 -23 22 15 72 172 234 258 264 405 433 441 504 27 53
-21 11 -217 -186 -114 -114 -263 -257 -332 -317 -164 -143 -159 -139 -165
-134 -2 3 5 81 15 174 27 230 40 256 201 407 159 150 257 273 236 294 -11 11
-53 -22 -207 -167 -100 -93 -150 -134 -150 -122 0 10 5 74 10 143 9 113 13
132 45 197 28 56 52 86 110 138 83 75 124 130 107 147 -14 14 -64 -4 -104 -37
-39 -33 -53 -32 -71 8 -37 80 -28 155 25 210 49 52 69 109 79 237 10 138 26
260 74 565 20 127 49 325 64 440 16 116 34 239 40 275 5 36 15 126 21 200 5
74 14 149 19 166 24 85 82 143 155 155 44 7 145 2 211 -11z m-75 -200 c8 -5
11 -13 6 -17 -9 -10 -93 -9 -103 1 -11 11 19 26 52 26 17 0 37 -4 45 -10z
m1179 -104 c15 -8 44 -33 64 -55 30 -33 37 -49 37 -81 0 -34 -4 -42 -32 -56
-39 -20 -110 -14 -140 12 -18 17 -20 26 -14 88 6 66 24 106 48 106 5 0 21 -6
37 -14z m-872 -7 c15 -5 81 -14 146 -18 65 -5 123 -13 129 -19 6 -6 -3 -23
-29 -50 -83 -87 -212 -78 -283 20 -50 68 -35 95 37 67z m251 -271 c2 -12 -8
-22 -33 -32 -37 -16 -65 -62 -65 -109 0 -52 -86 -61 -108 -12 -17 37 5 83 59
127 53 43 64 47 109 45 24 -1 36 -7 38 -19z m-61 -275 c4 -9 -1 -37 -11 -62
-58 -152 -74 -302 -36 -336 19 -17 26 -18 67 -7 25 7 72 15 104 19 56 6 59 5
59 -16 0 -32 -59 -131 -86 -143 -18 -9 -41 -2 -131 39 -160 74 -204 87 -432
134 -105 21 -129 35 -112 66 32 60 125 79 306 63 174 -15 206 -2 114 46 -26
14 -77 28 -119 33 -108 14 -120 41 -52 113 41 44 81 52 154 32 35 -10 81 -18
103 -18 36 -1 40 1 43 27 4 30 19 36 29 10z m754 -100 c14 -16 67 -85 118
-156 140 -193 221 -274 221 -222 0 22 -34 86 -84 159 -83 121 -121 226 -84
234 20 4 50 -35 116 -151 58 -102 88 -198 78 -252 -8 -40 -76 -115 -106 -115
-25 0 -97 72 -157 158 -58 83 -132 252 -140 323 -7 56 2 61 38 22z m411 -95
c12 -42 9 -52 -16 -42 -31 12 -59 88 -39 107 11 12 43 -25 55 -65z m-480 -228
c21 -6 51 -22 67 -36 52 -44 109 -164 78 -164 -20 0 -93 51 -181 126 -58 49
-75 69 -65 75 19 12 56 11 101 -1z m-1087 -29 c195 -41 321 -96 385 -170 111
-128 111 -128 171 -135 30 -4 69 -15 86 -26 34 -20 78 -101 89 -162 10 -62
-15 -59 -97 8 -210 175 -422 277 -654 314 -72 11 -160 49 -182 78 -40 50 15
102 107 101 30 0 73 -4 95 -8z m1997 -211 c22 -30 42 -141 33 -187 -3 -17 -13
-34 -21 -37 -9 -3 -55 -6 -104 -6 -68 0 -89 3 -94 15 -10 26 42 148 91 213 30
40 66 40 95 2z m-1882 -49 c190 -59 432 -224 491 -335 23 -43 23 -46 6 -63
-11 -11 -31 -17 -58 -16 -42 2 -160 42 -214 73 -16 9 -59 27 -95 40 -36 13
-69 27 -75 31 -5 4 -46 17 -90 28 -187 51 -265 103 -265 180 0 40 26 74 65 84
37 11 170 -2 235 -22z m1330 4 c0 -21 -69 -104 -100 -120 -59 -31 -98 -5 -85
55 9 41 38 62 103 75 61 13 82 10 82 -10z m598 -296 c50 -52 50 -123 -1 -133
-12 -2 -67 -9 -122 -14 -59 -6 -132 -21 -177 -37 -80 -27 -128 -30 -136 -6 -2
7 27 44 68 83 96 92 188 138 276 138 56 0 65 -3 92 -31z m-750 -488 c5 -30 -6
-71 -18 -71 -6 0 -10 23 -10 51 0 36 4 49 13 47 6 -3 13 -15 15 -27z m459
-293 c29 -33 36 -73 19 -107 -17 -31 -92 -72 -191 -102 -119 -37 -153 -24
-224 82 -61 91 -59 95 52 95 74 0 105 5 162 26 91 34 154 36 182 6z m71 -266
c19 -15 21 -22 13 -43 -22 -59 -246 -229 -301 -229 -54 0 -160 136 -160 205 0
34 18 32 22 -2 5 -42 39 -41 111 3 116 72 267 103 315 66z m-1818 -232 c0 -41
-5 -92 -11 -113 -13 -48 -67 -109 -135 -152 -62 -40 -104 -92 -104 -128 0 -21
-5 -27 -21 -27 -31 0 -151 37 -174 54 -19 13 -18 15 10 57 42 61 365 386 395
397 34 13 40 1 40 -88z m2313 -57 c40 -43 49 -85 36 -168 -16 -96 -7 -138 37
-172 35 -26 35 -27 14 -35 -44 -16 -88 1 -118 46 -19 28 -46 50 -87 71 -93 47
-130 72 -145 100 -27 51 20 63 195 49 57 -5 73 -3 84 9 17 22 -2 55 -37 63
-37 9 -52 23 -52 49 0 44 23 40 73 -12z"/>
<path d="M960 3872 c-39 -12 -7 -25 74 -29 66 -4 109 7 94 23 -11 10 -139 14
-168 6z"/>
<path d="M4101 6173 c2 -330 13 -408 47 -335 15 32 38 170 49 296 5 51 13 91
19 93 17 6 92 -112 110 -173 25 -86 14 -118 -69 -196 -153 -145 2 -90 298 105
255 169 373 235 394 222 15 -9 31 -92 31 -162 0 -41 10 -107 24 -161 13 -51
21 -92 17 -93 -3 -1 -22 0 -41 1 -103 4 -522 -301 -477 -347 12 -11 68 21 185
106 231 168 254 177 297 114 43 -64 58 -154 20 -123 -21 18 -70 3 -122 -37
-96 -73 -249 -124 -508 -169 -77 -13 -147 -24 -156 -24 -15 0 -17 21 -21 183
-4 185 -12 227 -44 227 -24 0 -34 -44 -44 -213 -20 -329 -9 -1507 16 -1620 9
-45 44 -32 72 26 39 81 41 79 449 -295 175 -161 315 -268 350 -268 25 0 26 -1
21 -62 -5 -61 -43 -205 -58 -221 -13 -15 -44 9 -85 67 -181 256 -399 495 -568
625 -58 44 -121 73 -143 64 -55 -21 -64 -181 -64 -1115 0 -600 3 -758 13 -758
37 1 179 32 255 55 366 113 502 163 561 204 37 27 54 80 47 152 -3 29 -7 54
-10 56 -2 3 -10 -21 -16 -52 -16 -79 -54 -120 -120 -129 -60 -8 -299 -93 -465
-166 -22 -10 -66 -27 -97 -39 l-58 -21 -5 23 c-2 12 -12 92 -20 178 -19 178
-12 275 25 401 l24 78 34 -63 c77 -141 75 -164 -14 -236 -58 -47 -68 -78 -24
-73 14 1 34 6 45 12 68 32 245 110 251 110 3 0 20 7 37 15 18 8 106 39 195 69
179 60 239 94 222 126 -9 16 -14 18 -35 8 -34 -15 -47 -2 -91 90 -92 195 -403
567 -554 665 -92 59 -105 78 -105 155 1 65 23 192 35 192 9 0 294 -291 361
-370 68 -79 96 -116 229 -300 93 -130 135 -178 166 -190 20 -8 23 -19 29 -117
5 -59 5 -256 2 -438 -6 -271 -10 -332 -21 -341 -8 -6 -66 -16 -128 -23 -409
-48 -631 -156 -729 -356 l-34 -70 0 -160 c0 -185 14 -247 69 -310 l34 -40 78
0 c67 1 88 5 134 29 84 43 133 88 169 155 60 113 37 237 -54 283 -36 19 -50
20 -157 14 -115 -7 -118 -7 -118 14 0 28 84 154 142 213 65 65 125 91 209 90
53 0 76 -6 118 -28 59 -32 111 -80 147 -135 29 -44 58 -186 49 -240 -10 -60
-16 -70 -46 -85 -36 -19 -38 -49 -4 -71 17 -11 35 -14 57 -10 90 19 94 18 124
-7 16 -14 36 -36 43 -50 15 -28 63 -53 81 -42 20 13 59 -17 96 -72 19 -29 43
-57 53 -62 40 -22 108 -41 147 -41 100 0 279 -92 332 -170 26 -38 29 -85 6
-94 -36 -14 -164 32 -325 116 -128 66 -228 143 -254 192 -26 50 -36 53 -71 22
-27 -23 -29 -29 -29 -98 0 -63 5 -83 33 -140 52 -106 123 -157 277 -198 62
-17 100 -20 180 -18 159 6 258 43 339 127 32 32 40 48 39 75 -1 43 -63 162
-114 220 -22 24 -39 49 -39 55 0 5 34 35 74 65 75 55 102 88 91 106 -12 19
-42 10 -96 -28 -131 -92 -216 -122 -340 -122 -151 0 -244 39 -382 158 l-84 72
-6 346 c-4 191 -7 649 -7 1018 -1 764 -18 2945 -25 3051 -2 39 -9 158 -15 265
-12 239 -20 281 -44 261 -22 -18 -29 4 -15 44 28 77 -22 86 -518 92 l-383 4 1
-228z m749 151 c0 -28 -39 -82 -82 -114 -45 -33 -88 -39 -108 -15 -10 12 -8
16 15 25 14 5 32 10 40 10 17 0 75 48 75 63 0 15 31 47 47 47 7 0 13 -7 13
-16z m-357 -108 c70 -29 107 -107 70 -148 -35 -39 -105 -7 -160 76 -47 69 -44
86 12 86 25 0 60 -6 78 -14z m487 -1368 c0 -315 -3 -588 -6 -606 -13 -62 -61
-73 -220 -51 -81 11 -121 26 -144 54 -31 37 54 78 192 91 40 3 77 9 82 12 25
14 -36 22 -179 22 -186 0 -317 22 -383 63 -40 26 -72 62 -72 82 0 27 127 71
343 118 53 12 97 24 97 27 0 3 -57 0 -127 -7 -71 -6 -172 -12 -225 -12 -124
-1 -137 9 -153 126 -6 44 -4 54 14 72 32 32 113 50 280 63 134 10 177 9 301
-5 169 -20 180 -20 180 -7 0 12 -49 38 -109 56 -54 16 -297 19 -382 5 -30 -6
-101 -11 -159 -13 l-105 -3 -9 159 c-8 143 -7 160 8 171 12 9 108 14 334 18
174 4 332 9 350 13 33 7 43 28 17 38 -24 9 -17 33 22 77 29 32 38 37 45 26 4
-9 8 -273 8 -589z m-686 -480 c120 -70 233 -151 445 -318 111 -88 211 -166
221 -173 31 -22 45 -122 32 -240 -7 -56 -14 -132 -18 -170 l-6 -67 -206 197
c-254 241 -304 287 -366 338 -99 82 -158 123 -181 129 -20 5 -24 13 -27 49 -3
44 10 263 17 285 6 18 12 16 89 -30z m665 -247 c39 -11 46 -32 31 -95 -24 -99
-26 -99 -114 -5 -70 76 -75 85 -60 96 19 14 102 16 143 4z m-536 -930 c160
-170 322 -402 368 -525 l22 -60 -27 -23 c-62 -53 -146 -9 -195 101 -24 56
-139 191 -258 307 -132 127 -148 159 -140 286 4 52 9 99 13 104 7 12 118 -85
217 -190z m-76 -277 c92 -95 146 -174 172 -252 25 -73 26 -91 7 -137 -20 -46
-49 -46 -110 1 -58 44 -158 177 -199 262 -25 54 -29 71 -24 114 7 56 29 88 60
88 12 0 50 -31 94 -76z m614 -1006 c14 -12 48 -89 64 -147 7 -22 5 -23 -21
-17 -42 10 -136 77 -154 109 -14 27 -14 29 9 48 26 22 80 25 102 7z m73 -402
c18 -55 20 -94 6 -116 -7 -12 -12 -12 -29 4 -18 16 -21 31 -21 91 0 103 14
110 44 21z m-574 -50 c0 -19 -125 -131 -168 -152 -50 -24 -80 -12 -104 42 -11
25 -17 48 -14 52 4 3 30 5 59 3 42 -1 65 5 122 33 76 38 105 44 105 22z m70
-146 c9 -17 7 -27 -9 -53 -46 -70 -153 -167 -186 -167 -27 0 -110 60 -150 108
l-28 33 29 -8 c47 -13 110 -6 151 17 21 12 65 37 98 55 70 40 81 42 95 15z
m886 -505 c45 -26 134 -121 134 -142 0 -20 -22 -16 -115 22 -98 39 -141 67
-150 96 -17 52 60 66 131 24z"/>
<path d="M4813 4598 c2 -9 26 -13 72 -13 46 0 70 4 73 13 3 9 -16 12 -73 12
-57 0 -76 -3 -72 -12z"/>
<path d="M12742 6313 c-26 -107 -48 -273 -39 -296 8 -21 60 -23 77 -2 6 8 16
44 20 81 5 43 16 76 29 93 52 65 55 72 44 102 -9 22 -8 31 4 41 25 20 47 -4
54 -58 8 -57 51 -141 124 -239 66 -89 165 -254 194 -325 13 -30 27 -59 31 -65
12 -16 80 -230 91 -288 5 -28 14 -113 19 -187 10 -141 31 -246 57 -291 24 -40
10 -77 -34 -95 -32 -14 -38 -14 -51 -1 -12 13 -12 22 -1 65 12 49 11 52 -14
89 -35 52 -60 112 -119 288 -107 320 -295 632 -420 696 -49 25 -51 24 -93 -12
-26 -24 -40 -47 -54 -98 -38 -133 -69 -300 -102 -547 -10 -79 -9 -94 5 -122
37 -71 79 -26 90 98 4 41 14 85 22 98 l16 24 24 -23 c33 -31 123 -220 167
-349 41 -120 77 -284 77 -347 0 -46 -23 -113 -38 -113 -23 0 -105 136 -127
210 -16 58 -98 211 -135 253 -23 26 -56 51 -76 57 -59 20 -61 16 -105 -240
-11 -69 -12 -191 0 -209 28 -44 78 51 112 213 12 58 25 106 29 106 3 0 12 -17
19 -37 8 -21 25 -60 38 -88 121 -253 144 -362 80 -393 -29 -14 -103 -7 -224
20 -50 12 -52 14 -62 55 -13 50 -25 54 -45 16 -18 -36 -24 -66 -47 -226 -10
-73 -33 -230 -52 -349 -28 -187 -31 -218 -18 -223 8 -3 91 -17 184 -30 93 -14
215 -36 271 -49 55 -13 126 -29 156 -36 30 -7 60 -16 65 -20 13 -10 168 -40
207 -40 16 0 28 -3 26 -7 -2 -5 -16 -33 -30 -64 -15 -31 -39 -66 -54 -78 -32
-25 -62 -23 -169 9 -291 88 -414 115 -502 108 -62 -5 -93 -29 -93 -70 0 -63
34 -84 176 -112 166 -33 202 -50 262 -125 36 -45 82 -143 82 -175 0 -13 -34
-55 -89 -112 -72 -73 -91 -99 -97 -130 -13 -74 -53 -124 -130 -162 -113 -57
-169 -188 -169 -392 0 -103 4 -125 33 -211 45 -131 104 -217 270 -390 l141
-146 -15 -139 c-8 -76 -23 -227 -33 -334 l-18 -195 -209 -206 c-216 -213 -324
-315 -384 -366 -145 -121 -254 -159 -303 -105 -9 9 -25 51 -36 92 -17 61 -21
102 -20 220 1 191 14 235 84 268 60 29 209 176 293 290 102 138 82 134 -87
-20 -63 -56 -136 -122 -162 -146 l-49 -43 8 63 c4 35 7 99 7 143 0 78 -1 80
-24 80 -22 0 -28 -10 -53 -80 -16 -44 -39 -138 -53 -210 -13 -71 -27 -143 -30
-160 -3 -16 -19 -109 -35 -205 -16 -96 -36 -209 -43 -250 -8 -41 -17 -94 -21
-117 l-6 -43 417 0 c403 1 643 14 663 37 10 12 27 98 55 278 14 88 41 250 60
360 77 443 88 531 89 710 1 150 -1 173 -18 197 -18 28 -68 48 -118 48 -40 0
-98 54 -98 91 0 16 6 29 13 30 25 2 63 -2 97 -13 33 -9 55 -19 153 -63 21 -10
49 -33 63 -51 31 -40 69 -54 150 -54 35 0 65 -4 69 -9 3 -6 -10 -17 -30 -27
-81 -38 -48 -44 304 -56 167 -5 314 -13 326 -18 20 -8 24 -20 35 -97 7 -48 21
-137 31 -198 11 -60 30 -182 44 -270 14 -88 30 -180 35 -205 6 -25 24 -142 40
-260 41 -295 56 -348 117 -387 53 -35 152 -42 586 -43 l417 0 0 123 c0 121
-11 190 -31 203 -21 13 -58 -40 -71 -101 -13 -59 -14 -60 -51 -63 -77 -7 -239
60 -260 106 -10 21 -8 27 13 44 23 18 34 20 136 13 91 -6 117 -4 141 9 46 23
66 76 67 173 1 98 -11 117 -73 116 -55 -1 -99 -30 -217 -143 -118 -113 -228
-189 -374 -258 -58 -28 -114 -57 -125 -66 -20 -16 -20 -16 -1 -31 33 -25 151
-20 211 10 29 14 68 25 93 25 44 0 112 -23 112 -38 0 -21 -339 -77 -400 -66
-83 15 -103 38 -144 161 -15 45 -40 100 -57 122 l-29 41 58 -6 c31 -4 75 -1
98 5 70 19 174 83 246 151 61 58 70 71 83 126 11 42 15 99 13 182 -3 109 -1
123 18 149 17 23 30 29 68 31 39 3 63 -4 130 -37 45 -22 103 -46 128 -52 53
-14 68 -36 69 -102 0 -23 4 -51 9 -62 8 -20 8 -20 16 -1 11 28 -31 337 -125
931 -41 255 -155 848 -172 893 -13 34 -22 21 -26 -36 -7 -88 -20 -120 -50
-124 -32 -4 -75 -60 -93 -123 -40 -132 -182 -418 -283 -570 -98 -147 -246
-315 -277 -315 -6 0 -13 -1 -17 -2 -3 -2 -11 17 -17 42 -21 84 -89 108 -331
117 -185 7 -346 42 -503 109 -166 71 -247 103 -372 143 -63 21 -131 46 -150
56 -83 41 -126 114 -96 160 21 32 51 39 150 32 137 -9 332 -85 484 -190 78
-54 116 -96 152 -167 50 -101 88 -114 144 -49 71 84 85 204 32 293 -30 51 -74
86 -147 119 -30 13 -60 31 -68 41 -21 25 11 64 84 101 56 28 67 30 175 30 100
0 120 -3 157 -22 113 -61 185 -231 160 -380 -6 -34 -8 -66 -4 -70 12 -11 109
13 170 41 69 33 176 131 229 209 48 70 103 203 118 285 13 73 13 256 -1 307
-13 46 -50 99 -82 117 -13 7 -86 15 -177 19 -161 7 -217 20 -268 59 -17 14
-34 19 -49 15 -24 -6 -38 11 -54 68 -13 44 10 79 78 115 115 61 273 90 388 72
108 -16 185 -60 291 -162 101 -98 134 -111 134 -55 0 59 14 60 43 2 51 -104
58 -65 27 150 -28 200 -78 512 -89 553 -5 20 -17 84 -26 142 -27 183 -96 521
-127 629 -40 141 -63 176 -130 196 -28 8 -74 15 -102 15 -57 0 -342 -35 -414
-50 -79 -18 -200 -60 -212 -75 -34 -41 35 -60 108 -29 82 34 307 65 489 66
128 1 161 -6 174 -40 17 -45 48 -211 57 -304 l8 -88 -36 6 c-64 10 -383 -40
-492 -77 -74 -24 -100 -24 -124 2 -27 31 -113 69 -155 69 -45 0 -85 29 -76 55
6 13 14 16 40 11 38 -7 138 17 181 43 17 11 78 33 136 49 100 29 130 35 295
63 74 12 175 51 175 67 0 59 -257 22 -567 -80 -100 -33 -189 -58 -198 -54 -10
3 -15 19 -15 48 -1 66 -17 120 -41 139 -22 16 -22 20 -16 155 7 147 24 232 55
274 23 31 105 62 272 102 190 45 201 47 263 48 108 0 139 -37 168 -203 25
-140 65 -209 103 -178 19 16 21 86 6 158 -6 26 -16 95 -23 152 -13 116 -9 111
-109 135 -115 28 -193 20 -413 -44 -201 -57 -250 -69 -309 -76 l-58 -7 12 23
c16 29 273 288 395 398 119 107 215 182 231 182 12 0 54 -96 54 -123 0 -28 52
-213 66 -235 19 -30 44 -39 55 -21 13 20 10 100 -6 214 -8 55 -15 125 -15 155
-3 157 -72 185 -210 84 -34 -25 -68 -43 -75 -40 -8 3 -19 24 -25 48 -39 158
-104 325 -209 533 l-61 120 88 5 c65 4 94 10 114 25 15 11 28 23 28 28 0 4 4
7 10 7 5 0 21 -36 35 -80 27 -88 49 -135 66 -145 6 -4 21 3 34 15 22 21 24 21
33 3 18 -34 32 -88 52 -200 24 -132 36 -171 51 -156 7 7 6 52 -6 144 -22 187
-47 300 -90 418 l-37 101 -658 0 -657 0 -21 -87z m531 -13 c-4 -65 42 -159
147 -305 69 -95 132 -204 160 -277 11 -29 25 -62 30 -73 39 -82 62 -303 40
-384 -19 -73 -110 -145 -142 -113 -6 6 -14 46 -19 89 -4 43 -17 114 -28 158
-43 175 -175 478 -267 613 -83 123 -114 175 -114 195 0 22 51 70 118 109 60
36 78 33 75 -12z m287 25 c8 -9 10 -27 6 -47 -11 -58 3 -96 61 -156 76 -80
113 -143 188 -317 42 -98 59 -258 36 -341 -12 -44 -34 -70 -50 -60 -21 14 -64
106 -86 188 -42 156 -110 308 -197 436 -53 79 -87 147 -88 174 0 10 13 21 35
28 42 14 54 34 48 78 -5 27 -2 32 15 32 11 0 25 -7 32 -15z m-732 -540 c59
-64 148 -216 212 -360 17 -38 37 -83 45 -100 58 -127 145 -400 145 -454 0 -60
-35 -125 -93 -173 -47 -40 -49 -41 -66 -22 -20 21 -51 105 -76 204 -50 198
-182 513 -243 578 -24 26 -36 31 -56 26 -57 -14 -55 91 2 118 36 18 51 65 51
166 1 45 5 82 10 82 5 0 36 -29 69 -65z m492 -1242 c-1 -153 -11 -298 -23
-309 -3 -3 -21 6 -40 19 -19 13 -68 34 -109 46 -40 12 -93 32 -118 44 -41 20
-45 25 -43 56 1 24 12 45 40 73 42 44 274 236 286 237 4 1 7 -74 7 -166z
m-678 -194 c57 -29 259 -79 321 -79 126 -1 201 -40 244 -129 26 -52 28 -65 28
-184 0 -122 -1 -130 -23 -147 -24 -20 -42 -19 -162 6 -178 39 -338 57 -315 35
11 -10 115 -41 220 -67 89 -22 184 -64 214 -97 29 -32 23 -74 -13 -83 -24 -6
-119 9 -166 26 -14 5 -101 23 -195 39 -218 38 -313 59 -347 77 -35 18 -58 52
-58 86 0 23 4 26 27 25 21 -2 30 5 41 26 16 33 34 351 25 444 -9 93 -5 97 63
67 31 -13 74 -34 96 -45z m802 -71 c8 -29 17 -69 21 -88 3 -19 10 -46 15 -60
10 -26 36 -189 96 -610 114 -794 146 -997 161 -1036 4 -12 -38 -14 -296 -14
-339 0 -314 -7 -287 80 8 25 23 115 35 200 12 85 26 178 31 205 26 134 64 646
52 702 -10 47 -5 73 14 73 30 0 46 48 54 167 5 65 18 181 30 257 29 190 47
220 74 124z m962 -445 c-31 -26 -132 -38 -280 -31 -84 4 -110 9 -147 29 -46
25 -61 57 -36 77 20 17 120 41 237 57 137 18 203 33 226 50 18 13 19 9 22 -73
3 -82 2 -88 -22 -109z m-128 -497 c39 -44 79 -95 89 -114 18 -33 17 -34 -1
-48 -30 -22 -150 -18 -215 7 -79 29 -104 43 -231 129 -64 42 -141 92 -173 110
-32 18 -62 40 -67 50 -13 25 -28 175 -35 365 l-6 160 284 -290 c156 -159 315
-326 355 -369z m216 417 c-16 -38 -15 -102 4 -164 40 -132 53 -302 24 -331
-25 -25 -105 50 -138 127 -12 30 -12 40 -2 62 11 22 53 52 93 66 23 9 -6 17
-94 27 -137 15 -251 80 -251 142 0 31 96 61 245 74 33 3 62 7 64 10 2 2 18 4
34 4 24 0 28 -3 21 -17z m-1865 -327 c9 -11 6 -15 -15 -20 -47 -12 -98 6 -77
27 12 13 80 7 92 -7z m351 -124 c36 -14 85 -26 109 -26 39 -1 46 2 51 23 8 34
28 38 36 8 14 -57 -70 -157 -131 -157 -69 0 -176 77 -191 136 -15 60 6 63 126
16z m854 -26 c81 -52 105 -96 70 -130 -25 -25 -77 -20 -105 10 -24 25 -48 28
-91 9 -23 -9 -23 9 -2 72 29 86 46 91 128 39z m-654 -257 c0 -4 -14 -2 -31 4
-27 11 -32 10 -45 -7 -8 -11 -14 -37 -14 -59 0 -53 -32 -97 -70 -97 -66 0 -92
84 -47 151 17 26 37 39 87 56 l65 22 28 -31 c15 -18 27 -35 27 -39z m-215
-267 c81 -33 78 -25 90 -225 9 -149 19 -166 88 -149 77 20 122 16 137 -12 15
-29 8 -63 -21 -99 -32 -41 -88 -37 -234 18 -66 25 -185 62 -264 81 -227 56
-261 76 -205 121 41 33 145 47 283 38 174 -10 209 6 121 54 -31 17 -64 26
-116 29 -42 3 -78 10 -84 17 -12 14 20 107 47 138 23 25 77 21 158 -11z m1003
-210 c174 -265 224 -364 188 -378 -35 -14 -109 56 -209 197 -25 37 -67 85 -92
107 -44 39 -45 41 -39 84 3 23 13 67 21 96 12 42 17 51 28 42 7 -6 54 -73 103
-148z m70 123 c17 -14 53 -56 80 -93 75 -101 161 -282 134 -282 -30 0 -242
302 -267 379 -9 29 16 28 53 -4z m221 -46 c14 -26 9 -99 -8 -99 -14 0 -51 69
-51 94 0 44 35 48 59 5z m-398 -294 c35 -22 88 -102 104 -152 16 -54 -59 -16
-192 97 -40 33 -73 65 -73 70 0 28 111 19 161 -15z m-1071 -34 c157 -40 252
-86 338 -165 87 -79 111 -96 180 -121 70 -25 109 -72 118 -139 l7 -49 -31 6
c-16 3 -86 43 -154 88 -128 84 -247 149 -333 180 -27 10 -69 25 -92 33 -23 8
-88 23 -144 32 -120 19 -192 49 -197 81 -3 18 7 29 44 53 62 39 112 39 264 1z
m1885 -137 c21 -8 51 -68 76 -152 11 -37 34 -86 50 -109 16 -23 29 -44 29 -48
0 -20 -264 37 -292 62 -10 9 -18 22 -18 30 0 29 81 182 106 202 30 24 27 23
49 15z m-561 -111 c-1 -46 -22 -84 -59 -109 -23 -15 -27 -15 -51 1 -23 15 -26
22 -21 57 8 61 52 100 107 95 22 -2 25 -6 24 -44z m649 -265 c48 -50 76 -110
77 -160 0 -46 -11 -49 -27 -8 -10 26 -16 30 -51 30 -22 0 -100 -12 -173 -26
-195 -38 -230 -40 -252 -16 -10 11 -15 26 -11 36 19 51 287 184 373 185 16 1
38 -14 64 -41z m10 -222 c70 -29 125 -132 113 -208 -12 -68 -8 -90 25 -143 36
-58 42 -97 17 -103 -13 -2 -18 3 -18 17 0 35 -35 44 -144 38 -93 -6 -407 -64
-466 -87 -43 -16 -141 -30 -169 -24 -38 9 -79 51 -111 115 -29 57 -43 126 -26
131 6 2 14 -12 18 -30 14 -53 41 -59 155 -33 54 12 181 37 283 56 381 71 415
85 204 86 -135 0 -271 -13 -357 -36 -97 -25 -167 -19 -167 16 0 36 109 96 245
134 33 9 87 25 120 36 51 16 191 45 233 48 7 1 27 -5 45 -13z m-317 -603 c-9
-77 -29 -108 -89 -143 -72 -41 -212 -74 -246 -57 -26 12 -62 91 -76 169 l-7
34 94 1 c79 0 104 4 163 28 89 36 125 44 149 32 16 -8 18 -16 12 -64z m78
-212 c45 -50 -51 -167 -194 -240 -93 -47 -177 -64 -197 -40 -10 13 -52 162
-56 199 -2 12 9 14 58 12 59 -3 105 8 265 67 70 26 102 26 124 2z m-1820 -192
c8 -43 7 -191 -2 -205 -4 -6 -18 -15 -32 -19 -33 -11 -133 -107 -171 -166 -23
-36 -29 -56 -25 -74 8 -31 -2 -32 -79 -5 -32 11 -70 20 -84 20 -34 0 -71 10
-71 20 0 47 398 460 444 460 7 0 16 -14 20 -31z m2291 -74 c0 -49 -23 -82 -49
-72 -22 9 -20 50 5 99 25 50 44 39 44 -27z m-3211 -331 c25 -9 19 -31 -14 -54
-49 -35 -83 -2 -43 42 17 19 31 22 57 12z"/>
<path d="M6325 6380 c-88 -4 -177 -11 -197 -15 l-36 -7 -6 -71 c-12 -140 -25
-1885 -27 -3522 l-2 -1659 49 -21 c84 -35 113 -54 129 -86 15 -28 15 -36 1
-92 -9 -34 -20 -108 -25 -165 -8 -89 -14 -111 -44 -165 -39 -69 -84 -115 -137
-143 -39 -20 -68 -21 -340 -9 -183 8 -233 3 -414 -35 -187 -40 -296 -104 -311
-183 -9 -44 13 -77 51 -77 30 0 88 51 120 106 14 24 28 44 30 44 2 0 3 -38 2
-84 -3 -71 0 -87 16 -105 64 -71 214 -33 258 66 18 42 19 51 8 105 -11 51 -11
61 2 74 14 14 19 12 46 -21 17 -21 35 -58 42 -84 15 -60 49 -119 72 -127 36
-11 40 4 33 115 -6 88 -4 109 8 119 21 18 61 -18 82 -73 16 -42 16 -59 -1
-127 -5 -21 -3 -28 8 -28 21 0 66 51 72 82 3 16 8 39 11 53 3 14 18 31 35 40
26 13 35 14 58 3 58 -28 55 -105 -5 -135 -66 -32 -49 -103 24 -103 58 0 73 14
73 70 0 64 16 72 53 27 21 -27 37 -37 58 -37 25 0 29 4 29 26 0 18 -17 43 -60
85 -58 57 -76 98 -50 114 16 10 65 -21 111 -70 93 -98 163 -102 200 -10 23 58
1 429 -33 533 -5 19 -6 37 -2 42 10 9 293 -331 301 -361 4 -15 0 -19 -21 -19
-85 0 -235 -159 -173 -183 45 -17 330 240 457 413 66 90 150 252 150 290 0 23
-10 23 -95 4 -45 -10 -85 27 -148 136 -141 247 -442 583 -574 641 -46 20 -63
43 -63 88 0 35 27 67 64 77 36 9 100 -39 236 -175 139 -140 268 -293 373 -444
114 -163 172 -227 206 -227 16 0 33 6 39 13 42 50 59 739 72 2922 5 963 10
1870 10 2018 l0 267 -95 0 c-98 0 -119 -10 -75 -38 64 -40 85 -202 77 -612 -6
-362 -24 -413 -141 -396 -27 4 -56 16 -68 28 l-21 21 26 23 c25 21 86 47 140
58 54 12 26 26 -51 26 -106 0 -149 -22 -226 -119 -67 -82 -106 -111 -153 -111
-61 0 -104 80 -84 156 31 116 182 232 396 303 234 78 116 97 -160 26 -77 -20
-171 -47 -210 -60 -221 -75 -300 -90 -325 -60 -6 8 -17 46 -23 86 -11 71 -11
72 16 95 40 34 130 54 517 114 248 39 260 41 260 51 0 20 -577 -25 -644 -51
-43 -16 -63 -12 -100 20 -30 27 -77 115 -65 123 5 4 460 82 653 112 82 13 156
27 165 30 37 14 -19 25 -137 25 -143 0 -319 -21 -480 -56 -111 -25 -113 -25
-145 -7 -19 11 -42 38 -56 66 -21 42 -22 50 -9 63 12 12 23 13 68 3 75 -16
126 -7 164 30 31 30 45 35 241 80 22 5 126 17 230 26 292 25 319 32 125 34
-91 1 -235 3 -320 5 -85 2 -227 1 -315 -4z m80 -884 c15 -11 17 -22 12 -65 -7
-60 -50 -161 -81 -190 -11 -11 -41 -24 -66 -30 -42 -10 -47 -9 -67 14 -25 29
-41 78 -50 153 l-6 52 33 0 c19 0 59 15 94 34 52 29 74 38 107 45 3 0 13 -5
24 -13z m629 -326 c31 -11 35 -47 9 -91 -25 -42 -64 -54 -183 -54 -85 0 -111
4 -133 18 -28 18 -28 18 -10 48 20 34 70 68 117 79 46 12 171 11 200 0z m-616
-25 c39 -17 112 -82 112 -100 0 -30 -103 -88 -239 -136 -79 -28 -99 -25 -115
14 -17 41 -46 197 -36 197 4 0 15 -9 25 -20 24 -27 49 -25 68 3 34 52 116 70
185 42z m592 -184 l74 -6 -2 -145 c-5 -258 -22 -863 -27 -925 -2 -33 -7 -105
-10 -160 -8 -127 -14 -165 -29 -165 -19 0 -172 133 -396 345 -223 211 -337
310 -405 353 -56 36 -65 50 -65 98 0 50 26 211 39 239 5 11 19 52 30 90 40
134 99 184 292 245 143 46 248 53 499 31z m-706 -825 c32 -25 152 -135 267
-246 257 -247 391 -366 446 -393 28 -14 43 -28 46 -45 7 -35 -19 -115 -43
-137 -19 -17 -23 -17 -53 -3 -83 40 -381 283 -548 446 -120 116 -190 169 -235
178 -24 4 -36 13 -40 29 -5 22 28 160 47 198 15 28 50 20 113 -27z m-48 -332
c51 -35 207 -163 419 -344 94 -80 201 -167 238 -195 37 -27 64 -51 58 -53 -5
-2 -36 2 -67 7 -84 16 -267 111 -413 214 -69 49 -164 114 -209 144 -46 31 -92
69 -103 87 -24 39 -26 128 -3 150 21 22 35 20 80 -10z m3 -305 c87 -49 349
-229 399 -275 52 -47 52 -67 -3 -89 -87 -37 -131 -15 -322 167 -73 69 -146
131 -163 138 -34 14 -40 43 -13 72 22 25 38 23 102 -13z m2 -193 c45 -34 141
-139 173 -187 16 -26 16 -27 -16 -54 -41 -34 -66 -44 -156 -60 -83 -15 -104
-28 -100 -64 6 -52 51 -43 323 64 66 25 163 57 215 70 199 50 256 67 297 87
24 12 46 18 50 14 28 -28 23 -1053 -7 -1415 -11 -131 -32 -163 -28 -42 3 95 5
93 -82 110 -65 13 -150 72 -164 114 -14 39 11 61 147 127 123 61 145 87 67 82
-25 -2 -83 -16 -130 -32 -113 -38 -151 -44 -195 -30 -50 17 -163 109 -301 246
-111 110 -117 117 -98 131 30 23 119 66 239 118 280 119 413 199 268 161 -48
-13 -237 -87 -272 -107 -38 -21 -221 -89 -240 -89 -29 0 -67 42 -75 83 -49
228 -46 349 9 416 31 36 33 77 4 86 -11 4 -25 19 -30 33 -21 53 11 172 46 172
7 0 32 -15 56 -34z m-113 -863 c-4 -67 -29 -71 -27 -4 2 36 6 51 16 51 11 0
13 -12 11 -47z m158 -146 c58 -43 555 -546 653 -662 72 -84 105 -154 96 -202
-10 -60 -65 -232 -75 -238 -5 -3 -61 72 -124 167 -63 95 -155 218 -204 273
-164 182 -380 361 -463 382 -32 9 -34 12 -37 58 -3 51 20 173 44 231 19 45 39
44 110 -9z m-57 -654 c143 -108 402 -417 552 -661 63 -103 79 -152 58 -178
-21 -25 -84 -53 -108 -47 -22 6 -66 68 -180 256 -78 128 -146 216 -253 324
-89 91 -133 117 -174 107 -25 -6 -27 -5 -20 17 4 13 16 60 27 104 11 44 22 86
24 93 7 20 35 14 74 -15z m62 -394 c129 -130 330 -456 358 -579 17 -75 -16
-116 -63 -79 -13 11 -52 66 -86 123 -68 114 -144 218 -236 322 -118 134 -164
226 -143 282 6 14 15 30 22 34 19 12 69 -22 148 -103z m-48 -793 c38 -29 43
-105 11 -168 -19 -36 -30 -35 -54 5 -26 41 -27 132 -3 159 19 21 22 22 46 4z
m-933 -151 c17 -18 25 -40 28 -77 3 -49 1 -56 -28 -85 -23 -23 -42 -33 -64
-33 l-31 0 28 23 c34 27 45 86 29 155 -12 50 1 56 38 17z"/>
<path d="M6780 4764 c-206 -36 -343 -86 -407 -147 -57 -54 -50 -72 90 -211
232 -232 563 -497 582 -466 13 20 -31 75 -85 106 -79 46 -140 102 -140 130 0
32 36 54 90 54 51 0 115 28 115 50 0 20 -71 18 -145 -3 -88 -27 -148 -22 -203
14 -54 35 -87 74 -87 100 0 20 44 56 105 86 53 27 80 33 196 43 109 9 153 25
157 57 5 32 -30 47 -98 40 -55 -6 -215 -51 -235 -67 -20 -16 -205 -70 -238
-70 -33 0 -67 24 -67 47 0 26 96 94 173 124 119 46 197 59 330 56 127 -2 157
7 124 41 -14 14 -38 17 -125 19 -59 0 -118 -1 -132 -3z"/>
<path d="M6920 2786 c0 -19 34 -29 81 -24 22 2 34 8 34 18 0 11 -14 16 -57 18
-47 2 -58 0 -58 -12z"/>
<path d="M6675 2371 c-81 -53 -124 -90 -104 -91 23 0 223 103 227 118 8 27
-63 12 -123 -27z"/>
<path d="M7888 6345 c-5 -5 -8 -1435 -8 -3178 l0 -3170 273 8 c617 16 736 20
740 25 3 3 9 526 15 1163 5 637 12 1160 14 1163 8 8 532 -18 542 -27 5 -4 22
-63 38 -131 16 -68 44 -186 62 -263 19 -77 48 -198 64 -270 17 -71 34 -137 37
-147 4 -9 20 -74 36 -145 16 -70 43 -182 59 -248 16 -66 45 -185 64 -265 19
-80 48 -199 65 -265 17 -66 44 -176 61 -245 17 -69 34 -136 39 -150 6 -14 17
-51 26 -82 29 -106 76 -117 481 -118 286 0 577 19 598 40 11 11 -8 146 -39
275 -13 55 -36 152 -50 215 -51 219 -136 551 -188 740 -19 69 -42 152 -51 185
-36 128 -108 334 -121 345 -8 7 -19 9 -25 5 -19 -12 -39 16 -60 84 -22 76 -52
121 -101 154 -58 38 -94 105 -126 229 -27 111 -28 118 -27 383 1 260 2 276 32
431 45 229 104 375 186 462 47 51 113 94 139 90 40 -6 34 -56 -21 -176 -67
-144 -86 -199 -111 -316 -19 -88 -20 -101 -7 -114 12 -12 18 -13 30 -3 22 19
29 -3 12 -43 -17 -40 -35 -51 -94 -59 -81 -10 -112 -63 -111 -184 0 -84 3
-103 43 -291 36 -171 67 -228 94 -174 27 52 22 148 -18 332 -30 139 -25 153
121 346 120 159 192 283 223 384 10 30 22 64 27 75 19 43 43 185 59 355 6 63
13 131 16 150 10 77 6 863 -5 995 -29 347 -42 440 -71 493 -5 10 -19 48 -31
87 -49 155 -117 265 -164 265 -40 0 -42 -62 -5 -145 84 -187 131 -338 112
-357 -13 -13 -114 35 -247 117 -95 59 -272 148 -415 208 -282 119 -748 277
-949 323 -36 8 -86 21 -111 29 -110 35 -416 74 -485 61 -81 -16 14 -45 330
-101 287 -52 502 -107 730 -188 368 -131 702 -299 954 -480 121 -87 228 -140
268 -134 29 5 34 3 39 -19 4 -15 0 -34 -10 -49 -38 -57 -139 -25 -389 124
-122 73 -405 221 -422 221 -3 0 -30 11 -58 24 -106 50 -403 153 -539 187 -46
11 -101 25 -123 30 -88 22 -394 70 -503 79 -237 20 -719 7 -746 -20 -27 -27
51 -37 349 -45 127 -4 289 -10 360 -15 139 -10 451 -51 525 -70 25 -6 83 -20
130 -31 387 -88 770 -265 1175 -541 101 -69 188 -118 209 -118 22 0 21 -56 -3
-112 -31 -73 -34 -73 -146 -6 -175 106 -444 277 -660 421 -222 148 -290 184
-395 210 -172 42 -421 60 -450 31 -32 -32 37 -72 150 -87 172 -22 332 -63 495
-127 83 -32 125 -60 92 -60 -28 0 -40 -38 -33 -110 7 -76 23 -130 39 -130 6 0
34 25 63 56 l52 57 56 -5 c87 -7 168 -54 480 -278 114 -82 196 -130 244 -143
23 -6 42 -17 42 -24 0 -7 -10 -33 -22 -58 -33 -68 -40 -67 -218 60 -213 151
-441 273 -526 283 -39 4 -45 1 -84 -39 -46 -47 -60 -75 -60 -118 0 -33 16 -51
46 -51 29 0 42 18 50 70 8 52 19 70 44 70 22 0 240 -111 325 -165 89 -57 173
-123 186 -147 9 -17 7 -24 -10 -42 -17 -16 -33 -21 -75 -20 -55 0 -72 7 -321
137 -64 33 -93 42 -145 45 -54 3 -68 1 -82 -15 -31 -34 -28 -96 6 -118 29 -19
52 -11 72 26 8 16 22 29 31 29 35 0 183 -82 235 -129 61 -56 91 -119 68 -146
-7 -8 -20 -15 -29 -15 -21 0 -100 42 -160 85 -47 34 -113 65 -137 65 -48 0 36
-84 227 -227 124 -92 179 -145 179 -170 0 -18 -36 -43 -61 -43 -33 0 -70 25
-164 109 -111 100 -160 131 -206 131 -50 0 -66 -24 -85 -132 -44 -246 -91
-369 -178 -465 -57 -63 -109 -94 -191 -116 -80 -21 -291 -37 -492 -37 l-163 0
1 858 c0 471 5 888 10 927 11 87 31 116 92 132 66 16 78 26 42 34 -16 4 -50 7
-75 8 -65 2 -96 20 -92 53 5 40 -21 44 -283 38 -126 -2 -313 -5 -413 -5 l-184
0 -20 25 c-20 24 -20 34 -16 378 4 238 9 357 16 364 15 15 312 25 1002 34 557
7 690 3 643 -19 -13 -5 -23 -13 -23 -17 0 -3 30 -17 68 -30 86 -30 280 -112
437 -185 166 -78 352 -148 368 -138 4 2 1 16 -7 29 -24 35 -20 61 12 78 30 17
27 19 -40 20 -55 1 -83 23 -92 70 -7 39 -27 59 -79 81 -48 20 -87 20 -87 -1 0
-8 16 -36 35 -61 35 -46 39 -63 17 -71 -20 -6 -61 48 -84 110 -70 194 -277
225 -1528 235 -410 3 -748 2 -752 -2z m806 -955 c106 -10 135 -23 101 -43 -38
-23 -70 -28 -225 -37 -139 -8 -167 -12 -260 -44 -126 -44 -221 -105 -280 -181
-24 -30 -46 -55 -50 -55 -16 0 -20 36 -20 191 l0 159 88 1 c48 1 157 5 242 9
240 10 297 10 404 0z m16 -150 c62 -7 89 -15 104 -30 20 -19 20 -20 0 -66 -31
-76 -57 -89 -177 -89 -134 -1 -177 -17 -302 -110 -103 -77 -182 -115 -238
-115 -47 0 -61 13 -59 54 2 53 38 114 106 181 110 108 277 175 456 184 14 0
63 -4 110 -9z m137 -352 c-13 -153 -85 -200 -360 -233 -123 -15 -231 -37 -382
-81 -101 -29 -155 -84 -81 -84 18 0 85 16 147 34 185 57 449 104 586 105 94 1
103 -6 103 -78 0 -52 -20 -71 -76 -71 -46 0 -282 -47 -299 -60 -5 -4 -44 -15
-85 -25 -87 -21 -294 -93 -365 -127 -84 -39 -53 -76 37 -44 24 8 82 28 130 45
104 37 244 61 351 61 81 0 147 -19 147 -42 0 -22 -106 -77 -229 -118 -156 -52
-276 -74 -373 -67 -54 3 -84 1 -103 -9 -23 -12 -27 -11 -33 4 -9 23 -8 649 2
686 l7 29 17 -34 c37 -74 107 -75 258 -4 125 58 195 75 364 85 74 4 148 14
163 21 33 15 57 55 58 96 l0 28 11 -25 c5 -14 7 -55 5 -92z m-106 71 c44 -23
10 -39 -88 -39 -96 0 -145 27 -90 50 26 12 151 4 178 -11z m2114 -842 c4 -128
4 -259 0 -291 -7 -54 -8 -56 -26 -40 -26 24 -71 13 -205 -52 -165 -79 -282
-151 -339 -208 -54 -55 -53 -54 -113 -192 -22 -51 -67 -135 -100 -188 -163
-259 -351 -425 -519 -455 -74 -14 -253 -14 -329 0 -61 11 -220 63 -238 78 -6
5 -40 21 -76 36 -36 14 -78 32 -95 39 -16 8 -67 26 -113 41 -153 50 -326 148
-484 273 -97 78 -176 129 -210 137 -21 5 -30 2 -40 -14 -7 -12 -16 -21 -20
-21 -14 0 -8 120 7 150 35 67 95 48 245 -76 146 -121 332 -235 455 -280 28 -9
55 -21 60 -25 24 -17 258 -71 358 -81 193 -21 391 18 532 102 96 59 225 210
225 265 0 24 -43 18 -86 -13 -22 -16 -74 -61 -116 -100 -42 -39 -94 -82 -115
-96 -106 -70 -261 -102 -453 -93 -239 11 -487 124 -777 355 -117 93 -235 174
-282 192 l-34 14 6 125 c7 132 23 251 36 264 8 8 110 -66 243 -175 479 -393
544 -436 580 -378 16 25 38 26 31 2 -8 -33 41 -65 107 -70 67 -5 82 -16 51
-38 -34 -24 -26 -49 21 -70 62 -28 278 -27 362 1 32 11 61 26 64 33 2 7 -6 25
-19 39 l-24 26 60 -7 c106 -11 230 35 352 133 75 60 114 119 147 223 22 68 54
223 68 336 7 51 23 17 39 -81 18 -113 37 -154 78 -164 44 -11 197 14 257 41
128 59 214 151 214 229 0 53 -12 72 -70 103 -75 41 -76 75 -3 131 37 29 50 30
231 33 15 0 26 7 29 20 14 54 21 1 28 -213z m-2061 -20 c20 -20 24 -37 31
-129 12 -189 9 -379 -8 -421 -18 -42 -60 -68 -79 -49 -9 9 -6 18 14 39 56 62
75 117 44 129 -7 3 -44 -7 -81 -22 l-68 -27 -66 17 c-112 29 -174 87 -144 135
29 47 192 111 285 111 62 0 125 57 82 74 -45 17 -206 -12 -329 -59 -94 -36
-168 -37 -228 -1 -27 15 -49 38 -57 57 -13 30 -12 33 16 56 35 28 184 78 291
97 43 8 122 15 176 15 90 1 100 -1 121 -22z m1962 -642 c-17 -68 -38 -97 -58
-77 -7 7 -3 25 16 56 29 50 52 61 42 21z m-422 -37 c-3 -18 -16 -76 -29 -128
-64 -256 -75 -348 -85 -700 -4 -157 -11 -293 -15 -302 -32 -79 -148 109 -175
282 -22 143 -10 247 42 380 71 178 238 500 260 500 4 0 5 -15 2 -32z m-2275
-250 c20 -12 73 -50 119 -86 111 -85 376 -263 430 -286 61 -28 53 -40 -20 -32
-118 12 -143 16 -228 37 -86 22 -166 57 -273 122 -33 20 -72 39 -88 42 -28 6
-30 9 -25 48 3 23 8 69 12 102 9 86 13 89 73 53z m27 -345 c59 -32 85 -53 79
-64 -3 -4 -34 -17 -70 -29 -35 -12 -76 -31 -91 -43 l-27 -21 6 82 c4 46 9 87
12 93 10 16 41 10 91 -18z m1834 -105 c17 -28 20 -51 20 -150 0 -64 -4 -119
-9 -122 -15 -10 -73 46 -92 89 -22 47 -23 86 -5 138 14 39 42 77 58 77 4 0 17
-15 28 -32z m-1030 -68 c577 -61 1125 -318 1525 -715 150 -150 181 -213 261
-538 13 -54 28 -106 34 -116 22 -42 -9 -24 -139 77 -465 366 -726 533 -876
562 l-61 12 -1 86 c-1 48 -8 116 -17 152 -48 207 -66 283 -71 291 -8 11 -722
12 -729 1 -3 -5 2 -118 10 -253 17 -268 14 -425 -9 -479 -20 -47 -63 -86 -112
-100 -57 -17 -396 -25 -469 -11 -137 25 -125 93 26 154 72 29 185 47 291 47
139 0 247 29 247 66 0 37 -115 44 -289 18 -140 -20 -197 -35 -380 -100 -84
-30 -158 -54 -163 -54 -6 0 -7 86 -3 223 3 122 8 323 11 445 5 161 9 221 17
213 15 -15 87 -14 190 5 158 27 511 34 707 14z m823 -32 c17 -22 18 -30 7 -43
-22 -27 -90 -17 -90 14 0 25 30 62 47 59 9 -2 25 -15 36 -30z m82 -806 c17 -8
116 -73 221 -143 216 -146 417 -303 543 -424 107 -102 197 -175 217 -175 8 0
19 -12 24 -26 13 -33 13 -181 0 -189 -15 -10 -89 46 -216 163 -387 356 -552
491 -686 558 -61 31 -79 35 -120 32 -40 -4 -51 -2 -58 13 -16 29 -23 161 -11
192 12 31 24 31 86 -1z m-1684 -229 c63 -47 208 -180 375 -345 250 -246 310
-295 331 -274 11 10 -16 84 -42 115 -14 16 -47 43 -73 60 -90 58 -97 141 -12
141 33 0 77 -36 106 -86 22 -37 28 -63 35 -157 16 -215 -22 -663 -57 -674 -14
-5 -60 70 -130 207 -109 217 -257 423 -424 591 -76 77 -122 115 -167 138 -82
41 -90 64 -74 223 6 63 11 119 11 126 0 22 16 13 121 -65z m723 -83 c-16 -68
-35 -110 -59 -130 -26 -22 -156 -7 -260 30 -135 48 -156 75 -82 105 49 20 122
31 267 41 58 3 107 8 109 10 2 2 12 4 22 4 16 0 16 -4 3 -60z m1124 -42 c124
-80 347 -274 612 -531 209 -204 282 -261 322 -253 37 7 41 -5 22 -56 -27 -69
-35 -74 -86 -54 -47 18 -101 56 -365 257 -289 220 -558 389 -619 389 -18 0
-24 10 -38 68 -19 80 -21 202 -3 221 21 22 84 5 155 -41z m-1896 -223 c91 -67
250 -276 400 -525 144 -241 223 -395 262 -515 25 -78 25 -78 6 -105 -20 -28
-50 -42 -68 -31 -5 3 -11 42 -14 86 -4 66 -11 92 -41 151 -118 234 -396 602
-540 715 -38 30 -58 39 -88 39 -46 0 -48 7 -19 80 11 28 20 59 20 70 0 25 18
70 27 70 5 0 29 -16 55 -35z m1984 -211 c288 -186 523 -361 690 -515 118 -108
203 -179 215 -179 5 0 7 11 3 25 -12 47 36 16 51 -33 19 -65 -57 -209 -133
-248 -24 -13 -50 -20 -58 -17 -8 3 -19 25 -25 49 -14 54 -83 131 -241 271
-297 262 -445 365 -543 379 -74 11 -82 22 -83 111 0 54 -8 104 -26 162 -14 47
-26 86 -26 88 0 15 49 -11 176 -93z m-1969 -122 c129 -108 300 -329 389 -503
38 -76 84 -208 84 -244 0 -35 -34 -95 -53 -95 -25 0 -45 34 -56 92 -17 92
-100 240 -242 428 -126 167 -206 235 -234 197 -14 -20 -35 -23 -35 -4 0 6 6
38 14 69 15 64 39 108 61 108 8 0 40 -22 72 -48z m1990 -249 c143 -91 516
-395 560 -456 13 -18 21 -40 18 -49 -6 -16 -144 -88 -168 -88 -20 0 -37 22
-37 48 0 36 -34 85 -98 140 -122 105 -287 202 -344 202 -33 0 -35 9 -8 32 35
30 36 84 5 186 -10 31 5 28 72 -15z m-2021 -10 c36 -39 175 -239 240 -343 22
-35 38 -77 41 -103 5 -39 2 -46 -27 -70 -63 -54 -108 -32 -168 81 -48 90 -100
143 -147 151 -38 6 -40 8 -39 41 1 19 8 64 17 100 9 36 19 91 22 123 4 31 11
57 16 57 6 0 26 -17 45 -37z m2093 -318 c37 -19 129 -120 137 -150 13 -52 5
-59 -84 -69 -60 -6 -86 -6 -95 3 -16 16 -23 197 -7 216 15 18 15 18 49 0z
m-2104 -89 c51 -86 50 -126 -2 -126 -16 0 -27 8 -33 26 -13 33 -13 144 0 144
5 0 21 -20 35 -44z"/>
<path d="M8680 2149 c-30 -4 -104 -15 -165 -24 -277 -41 -360 -57 -428 -80
-76 -27 -104 -46 -93 -64 9 -13 51 -14 75 -2 10 6 87 19 172 30 85 12 181 26
214 31 33 6 111 17 174 26 161 21 215 46 179 82 -13 13 -46 14 -128 1z"/>
<path d="M8208 5933 c-63 -16 72 -41 164 -30 56 7 63 11 53 26 -6 11 -180 14
-217 4z"/>
<path d="M1803 4343 c-23 -56 -14 -155 17 -188 50 -53 151 -53 259 0 64 32
215 72 352 94 120 20 234 55 242 75 2 6 1 21 -4 34 -10 27 -33 28 -114 6 -33
-9 -109 -29 -170 -44 -156 -40 -323 -87 -370 -104 -49 -18 -97 -20 -113 -4 -7
7 -12 31 -12 55 0 102 -55 151 -87 76z"/>
<path d="M12291 3573 c-11 -38 -25 -95 -31 -128 -6 -33 -18 -87 -26 -120 -15
-61 -47 -232 -110 -590 -90 -514 -139 -807 -193 -1165 -17 -107 -34 -222 -40
-255 -5 -33 -11 -85 -13 -115 -3 -50 -1 -55 17 -52 70 11 315 237 315 291 0
25 -50 9 -104 -34 -69 -54 -96 -58 -96 -16 0 16 -9 59 -21 96 -11 37 -18 69
-15 73 3 3 17 0 31 -6 46 -21 52 -16 58 51 14 136 78 605 98 722 6 33 23 143
39 245 16 102 36 226 44 275 9 50 25 153 36 230 11 77 24 167 30 200 5 33 14
117 19 185 15 187 -1 234 -38 113z"/>
<path d="M3030 2691 c0 -87 12 -120 25 -68 10 39 1 150 -12 155 -10 3 -13 -19
-13 -87z"/>
<path d="M10547 2253 c-11 -10 -8 -111 2 -118 14 -8 31 28 31 64 0 49 -15 73
-33 54z"/>
<path d="M10597 2053 c-4 -3 -7 -30 -7 -60 0 -39 4 -53 14 -53 17 0 26 22 26
60 0 48 -15 72 -33 53z"/>
<path d="M4125 1856 c-21 -21 -25 -35 -25 -84 0 -65 15 -88 49 -77 28 8 55 85
47 129 -10 51 -39 64 -71 32z"/>
<path d="M4202 978 c-26 -26 -7 -65 97 -193 35 -44 84 -111 109 -148 47 -74
92 -109 132 -105 23 3 25 -1 28 -37 4 -48 41 -99 127 -175 104 -92 144 -109
166 -69 22 42 10 245 -16 255 -7 3 -29 -6 -50 -20 -49 -34 -80 -33 -116 3 -38
38 -37 59 7 116 47 62 60 93 47 106 -13 13 -47 -5 -111 -56 -24 -19 -52 -35
-62 -35 -37 0 -117 99 -208 257 -54 92 -117 134 -150 101z"/>
<path d="M12428 786 c-229 -210 -538 -539 -538 -573 0 -21 15 -15 72 28 131
102 598 602 598 640 0 21 -25 3 -132 -95z"/>
<path d="M5543 43 c-13 -2 -23 -8 -23 -13 0 -12 39 -20 100 -20 50 0 91 12 80
23 -8 8 -133 16 -157 10z"/>
</g>
</svg>
