<?xml version="1.0" standalone="no"?>
<!DOCTYPE svg PUBLIC "-//W3C//DTD SVG 20010904//EN"
 "http://www.w3.org/TR/2001/REC-SVG-20010904/DTD/svg10.dtd">
<svg version="1.0" xmlns="http://www.w3.org/2000/svg"
 width="1600.000000pt" height="650.000000pt" viewBox="0 0 1600.000000 650.000000"
 preserveAspectRatio="xMidYMid meet">

<g transform="translate(0.000000,650.000000) scale(0.100000,-0.100000)"
fill="#000000" stroke="none">
<path d="M6015 6356 c-60 -28 -97 -66 -124 -126 -20 -44 -21 -62 -21 -850 l0
-805 24 -50 c27 -59 77 -106 137 -129 40 -15 104 -16 634 -14 l590 3 74 27
c265 97 439 363 416 637 -8 91 -45 211 -85 274 -16 26 -30 52 -30 57 0 5 14
31 30 57 40 63 77 183 85 274 23 274 -151 540 -416 637 l-74 27 -595 3 -595 2
-50 -24z m184 -103 c47 -36 66 -71 66 -123 0 -112 -114 -180 -215 -128 -108
56 -100 213 15 264 38 18 100 11 134 -13z m1032 13 c129 -28 247 -110 322
-223 63 -98 79 -144 85 -254 5 -113 -7 -179 -50 -266 l-31 -63 -31 25 c-45 37
-124 82 -176 102 -25 9 -46 17 -48 19 -2 1 6 19 17 40 45 88 35 182 -27 254
-68 80 -64 80 -519 80 l-403 0 0 103 c0 80 -5 111 -20 146 -11 24 -20 45 -20
47 0 2 188 4 418 4 319 0 432 -4 483 -14z m-1210 -366 c35 -15 66 -20 147 -20
l102 0 0 -125 0 -125 -102 0 c-81 0 -112 -5 -147 -20 -24 -11 -45 -20 -47 -20
-2 0 -4 74 -4 165 0 91 2 165 4 165 2 0 23 -9 47 -20z m1185 -62 c27 -30 34
-46 34 -79 0 -52 -24 -92 -67 -113 -29 -14 -85 -16 -418 -16 l-385 0 0 125 0
126 401 -3 401 -3 34 -37z m-1033 -322 c71 -29 110 -111 88 -179 -34 -103
-155 -137 -236 -66 -62 55 -70 138 -18 200 46 55 105 71 166 45z m1060 -1 c74
-15 165 -60 218 -106 l34 -29 -34 -29 c-18 -16 -60 -44 -92 -61 -103 -55 -151
-60 -591 -60 l-398 0 0 150 0 150 398 0 c306 0 412 -4 465 -15z m379 -329 c26
-63 35 -219 19 -296 -40 -188 -209 -355 -398 -395 -53 -11 -162 -15 -485 -15
-230 0 -418 2 -418 4 0 2 9 23 20 47 15 35 20 66 20 147 l0 102 403 0 c455 0
451 0 519 80 62 72 72 164 27 252 -23 45 -23 48 -3 48 26 0 135 57 189 98 l50
39 18 -30 c10 -16 28 -53 39 -81z m-1591 -36 c35 -15 66 -20 147 -20 l102 0 0
-125 0 -125 -102 0 c-81 0 -112 -5 -147 -20 -24 -11 -45 -20 -47 -20 -2 0 -4
74 -4 165 0 91 2 165 4 165 2 0 23 -9 47 -20z m1185 -62 c28 -31 34 -45 34
-83 0 -38 -6 -52 -34 -83 l-34 -37 -401 -3 -401 -3 0 126 0 126 401 -3 401 -3
34 -37z m-1007 -335 c47 -36 66 -71 66 -123 0 -112 -114 -180 -215 -128 -108
56 -100 213 15 264 38 18 100 11 134 -13z"/>
<path d="M8609 6366 c-62 -22 -106 -63 -145 -136 -18 -34 -19 -70 -19 -850 l0
-815 22 -41 c26 -49 73 -98 117 -122 28 -16 88 -17 736 -17 648 0 708 1 736
17 155 85 186 285 63 407 -69 69 -37 66 -631 69 l-538 3 0 124 0 124 413 3
c454 3 439 1 506 69 102 101 102 257 0 358 -67 68 -52 66 -506 69 l-413 3 0
124 0 124 538 3 c594 3 562 0 631 69 102 101 102 257 0 358 -70 70 -20 66
-784 68 -550 2 -697 0 -726 -11z m147 -105 c110 -50 113 -209 4 -263 -97 -49
-210 21 -210 129 0 53 20 94 57 121 50 35 92 39 149 13z m961 -28 c-29 -65
-28 -153 2 -210 l21 -43 -394 0 -393 0 -5 108 c-4 84 -9 116 -27 150 l-21 42
419 0 420 0 -22 -47z m289 28 c110 -50 113 -209 4 -263 -97 -49 -210 21 -210
129 0 53 20 94 57 121 50 35 92 39 149 13z m-1268 -381 l102 0 0 -125 0 -125
-95 0 c-69 0 -108 -5 -145 -19 l-50 -19 0 163 0 164 43 -19 c32 -15 65 -20
145 -20z m22 -372 c123 -64 98 -249 -36 -274 -48 -9 -118 20 -149 60 -45 60
-29 160 32 204 52 37 94 40 153 10z m707 -25 c-29 -65 -28 -153 2 -210 l21
-43 -270 0 -270 0 0 150 0 150 269 0 270 0 -22 -47z m289 28 c110 -50 113
-209 4 -263 -97 -49 -210 21 -210 129 0 53 20 94 57 121 50 35 92 39 149 13z
m-1018 -381 l102 0 0 -125 0 -125 -95 0 c-69 0 -108 -5 -145 -19 l-50 -19 0
163 0 164 43 -19 c32 -15 65 -20 145 -20z m18 -369 c110 -50 113 -209 4 -263
-97 -49 -210 21 -210 129 0 53 20 94 57 121 50 35 92 39 149 13z m961 -28
c-29 -65 -28 -153 2 -210 l21 -43 -420 0 -420 0 21 43 c18 33 23 65 27 150 l5
107 393 0 393 0 -22 -47z m289 28 c110 -50 113 -209 4 -263 -97 -49 -210 21
-210 129 0 53 20 94 57 121 50 35 92 39 149 13z"/>
<path d="M11816 6365 c-22 -8 -58 -33 -81 -57 -28 -29 -181 -285 -465 -778
-233 -404 -435 -757 -449 -785 -61 -122 -10 -278 112 -342 48 -24 148 -29 201
-9 66 25 112 78 196 224 l75 131 505 1 506 0 74 -132 c88 -155 136 -209 203
-227 57 -16 151 -10 194 13 106 54 161 179 129 290 -10 33 -184 346 -452 813
-464 806 -485 839 -570 862 -53 15 -131 13 -178 -4z m173 -112 c47 -36 66 -71
66 -123 0 -112 -114 -180 -215 -128 -108 56 -100 213 15 264 38 18 100 11 134
-13z m577 -965 l15 -28 -170 0 -169 0 -136 235 -137 235 88 149 87 148 204
-356 c112 -196 210 -368 218 -383z m-798 586 l83 -144 -134 -233 -134 -232
-173 -3 -172 -2 39 68 c114 204 399 692 403 692 3 -1 42 -66 88 -146z m162 -1
c0 -5 -5 -15 -10 -23 -9 -13 -11 -13 -20 0 -15 22 -12 30 10 30 11 0 20 -3 20
-7z m87 -431 l102 -177 -105 -3 c-57 -1 -151 -1 -208 0 l-104 3 102 177 c55
98 103 177 106 177 3 1 51 -79 107 -177z m-679 -314 c70 -43 89 -142 40 -210
-61 -87 -202 -74 -250 22 -66 131 84 266 210 188z m172 15 c0 -5 -4 -14 -9
-22 -7 -11 -11 -9 -20 8 -10 18 -9 21 9 21 11 0 20 -3 20 -7z m757 -135 l82
-143 -220 -3 c-120 -1 -317 -1 -438 0 l-218 3 81 142 81 142 275 1 276 0 81
-142z m76 127 c-6 -17 -25 -15 -31 3 -2 7 5 12 17 12 14 0 19 -5 14 -15z m295
-7 c70 -43 89 -142 40 -210 -61 -87 -202 -74 -250 22 -66 131 84 266 210 188z
m-1532 -367 c110 -50 113 -209 4 -263 -97 -49 -210 21 -210 129 0 53 20 94 57
121 50 35 92 39 149 13z m1730 0 c110 -50 113 -209 4 -263 -97 -49 -210 21
-210 129 0 53 20 94 57 121 50 35 92 39 149 13z"/>
<path d="M13839 6366 c-62 -22 -106 -63 -145 -136 -18 -34 -19 -70 -19 -850
l0 -815 22 -41 c53 -100 117 -139 228 -139 88 0 121 13 174 66 71 70 75 91 79
332 l4 217 131 0 131 0 296 -294 c331 -329 337 -333 453 -324 71 6 111 23 156
69 50 50 74 106 75 174 1 106 -11 124 -196 311 l-169 171 93 94 c149 149 208
289 208 493 0 222 -78 383 -257 536 -71 61 -157 104 -259 130 -71 19 -110 20
-523 20 -340 -1 -455 -4 -482 -14z m147 -105 c110 -50 113 -209 4 -263 -97
-49 -210 21 -210 129 0 53 20 94 57 121 50 35 92 39 149 13z m812 3 c211 -43
397 -225 447 -435 52 -222 -34 -467 -211 -600 l-55 -42 -110 109 c-60 60 -109
111 -109 114 0 3 15 12 34 18 19 7 53 31 76 53 124 121 122 316 -6 428 -76 67
-101 71 -409 71 l-272 0 -5 108 c-4 84 -9 116 -27 150 l-21 42 295 0 c231 0
313 -3 373 -16z m-830 -384 l102 0 0 -184 0 -184 -102 -4 c-79 -2 -113 -8
-145 -24 l-43 -21 0 228 0 228 43 -19 c32 -15 65 -20 145 -20z m777 -19 c99
-46 139 -143 100 -238 -20 -48 -41 -71 -87 -94 -34 -17 -62 -19 -308 -19
l-270 0 0 185 0 185 263 0 c234 0 266 -2 302 -19z m-717 -505 c35 -34 37 -40
37 -101 0 -61 -2 -67 -38 -102 -35 -36 -41 -38 -102 -38 -61 0 -67 2 -102 38
-36 35 -38 41 -38 101 0 69 12 91 70 128 23 14 43 18 83 15 46 -3 59 -9 90
-41z m291 -6 c-10 -28 -19 -70 -19 -95 0 -25 9 -67 19 -95 l19 -50 -79 0 -79
0 0 145 0 145 79 0 79 0 -19 -50z m309 28 c70 -43 89 -142 40 -210 -61 -87
-202 -74 -250 22 -66 131 84 266 210 188z m237 -238 c-3 -4 -21 -11 -41 -14
-19 -4 -42 -10 -49 -12 -10 -4 -8 8 7 45 l22 51 33 -32 c18 -17 30 -34 28 -38z
m180 -170 l89 -89 -28 -11 c-15 -5 -31 -10 -36 -10 -4 0 -31 -20 -58 -45 -34
-31 -57 -62 -69 -95 l-19 -50 -164 165 -165 165 55 0 c78 0 180 17 242 39 29
10 55 19 58 20 3 0 46 -39 95 -89z m-1077 32 l102 -4 0 -78 0 -78 -50 19 c-28
10 -70 19 -95 19 -25 0 -67 -9 -95 -19 l-50 -19 0 103 0 102 43 -21 c32 -16
66 -22 145 -24z m18 -241 c110 -50 113 -209 4 -263 -97 -49 -210 21 -210 129
0 53 20 94 57 121 50 35 92 39 149 13z m1250 0 c110 -50 113 -209 4 -263 -97
-49 -210 21 -210 129 0 53 20 94 57 121 50 35 92 39 149 13z"/>
<path d="M1092 5800 c-137 -25 -243 -82 -340 -185 -117 -123 -166 -246 -165
-420 0 -85 4 -113 29 -185 17 -47 47 -111 68 -142 47 -72 136 -155 207 -192
29 -16 56 -30 58 -32 2 -2 -14 -34 -36 -71 -132 -223 -236 -509 -289 -792 -37
-203 -45 -421 -42 -1101 3 -685 -1 -647 71 -690 29 -18 51 -20 215 -20 l182 0
0 -487 c0 -545 -1 -536 70 -578 35 -20 45 -20 1920 -23 1339 -2 1893 1 1911 9
15 6 40 24 55 40 l29 30 5 497 5 497 180 5 c203 6 226 13 264 80 21 37 21 46
21 721 0 676 -5 812 -36 994 -45 269 -152 571 -278 791 -31 53 -55 98 -54 98
80 28 225 153 276 239 62 102 85 188 86 312 1 88 -4 124 -21 180 -61 191 -217
348 -408 408 -54 17 -93 22 -175 21 -119 0 -164 -11 -270 -61 -109 -52 -246
-196 -286 -301 -1 -1 -43 22 -95 53 -151 89 -396 186 -604 240 -341 88 -719
95 -1090 20 -231 -47 -501 -146 -698 -256 -60 -33 -110 -59 -111 -57 -2 2 -16
28 -32 58 -42 80 -164 198 -244 236 -126 61 -263 84 -378 64z m1616 -1860
c-163 -51 -253 -161 -265 -325 -15 -197 89 -404 250 -499 85 -50 171 -67 356
-68 221 -2 316 25 422 120 176 158 234 448 125 621 -45 70 -154 150 -208 151
-9 0 -20 5 -24 12 -13 21 257 2 371 -27 171 -43 282 -105 412 -228 127 -121
206 -257 254 -438 34 -126 32 -327 -4 -462 -74 -278 -280 -509 -549 -616 -156
-63 -163 -63 -738 -68 -356 -3 -557 -1 -625 7 -347 40 -640 265 -768 590 -52
132 -71 328 -46 480 52 330 319 631 644 729 98 30 170 39 320 39 l130 0 -57
-18z"/>
<path d="M6015 4227 c-60 -29 -97 -67 -124 -127 -20 -44 -21 -62 -21 -850 l0
-805 24 -50 c27 -60 77 -106 138 -129 40 -16 89 -17 469 -14 486 5 497 6 684
98 275 134 476 389 541 685 23 108 23 322 0 430 -65 296 -266 551 -541 685
-188 92 -197 93 -690 97 l-430 4 -50 -24z m184 -104 c47 -36 66 -71 66 -123 0
-112 -114 -180 -215 -128 -108 56 -100 213 15 264 38 18 100 11 134 -13z m693
12 c280 -42 529 -230 667 -502 60 -120 76 -199 76 -383 0 -141 -3 -176 -23
-243 -96 -334 -385 -592 -720 -642 -87 -13 -562 -23 -562 -11 0 2 9 23 20 47
15 35 20 66 20 146 l0 101 253 4 c288 4 324 12 449 94 238 158 333 442 238
711 -47 133 -171 269 -304 332 -44 22 -105 44 -134 50 -29 6 -154 11 -277 11
l-225 0 0 103 c0 80 -5 111 -20 146 -11 24 -20 45 -20 47 0 12 475 2 562 -11z
m-871 -365 c35 -15 66 -20 147 -20 l102 0 0 -500 0 -500 -102 0 c-81 0 -112
-5 -147 -20 -24 -11 -45 -20 -47 -20 -2 0 -4 243 -4 540 0 297 2 540 4 540 2
0 23 -9 47 -20z m832 -35 c144 -30 270 -132 340 -273 l42 -85 0 -127 0 -127
-42 -85 c-32 -65 -58 -100 -106 -144 -131 -122 -206 -144 -509 -144 l-208 0 0
500 0 500 208 0 c141 0 229 -5 275 -15z m-654 -1112 c47 -36 66 -71 66 -123 0
-112 -114 -180 -215 -128 -108 56 -100 213 15 264 38 18 100 11 134 -13z"/>
<path d="M8565 4226 c-60 -28 -97 -66 -124 -126 -20 -44 -21 -62 -21 -850 0
-788 1 -806 21 -850 27 -60 64 -98 124 -126 l50 -24 680 0 680 0 50 24 c127
60 180 206 121 331 -28 60 -66 97 -126 124 -43 20 -63 21 -572 21 l-528 0 0
125 0 125 403 0 c402 0 402 0 452 24 127 60 180 206 121 331 -28 60 -66 97
-126 124 -43 20 -64 21 -447 21 l-403 0 0 125 0 125 528 0 c509 0 529 1 572
21 60 27 98 64 126 124 60 127 4 275 -126 334 -44 20 -62 21 -725 21 l-680 0
-50 -24z m184 -103 c47 -36 66 -71 66 -123 0 -112 -114 -180 -215 -128 -108
56 -100 213 15 264 38 18 100 11 134 -13z m961 23 c0 -2 -9 -23 -20 -47 -12
-27 -20 -66 -20 -99 0 -33 8 -72 20 -99 11 -24 20 -45 20 -47 0 -2 -178 -4
-395 -4 l-395 0 0 103 c0 80 -5 111 -20 146 -11 24 -20 45 -20 47 0 2 187 4
415 4 228 0 415 -2 415 -4z m289 -23 c47 -36 66 -71 66 -123 0 -112 -114 -180
-215 -128 -108 56 -100 213 15 264 38 18 100 11 134 -13z m-1428 -353 c35 -15
66 -20 147 -20 l102 0 0 -125 0 -125 -102 0 c-81 0 -112 -5 -147 -20 -24 -11
-45 -20 -47 -20 -2 0 -4 74 -4 165 0 91 2 165 4 165 2 0 23 -9 47 -20z m146
-381 c106 -40 133 -173 49 -247 -42 -37 -82 -47 -135 -32 -106 28 -144 148
-74 231 44 52 103 70 160 48z m743 7 c0 -2 -9 -23 -20 -47 -12 -27 -20 -66
-20 -99 0 -33 8 -72 20 -99 11 -24 20 -45 20 -47 0 -2 -121 -4 -270 -4 l-270
0 0 150 0 150 270 0 c149 0 270 -2 270 -4z m289 -23 c47 -36 66 -71 66 -123 0
-112 -114 -180 -215 -128 -108 56 -100 213 15 264 38 18 100 11 134 -13z
m-1178 -353 c35 -15 66 -20 147 -20 l102 0 0 -125 0 -125 -102 0 c-81 0 -112
-5 -147 -20 -24 -11 -45 -20 -47 -20 -2 0 -4 74 -4 165 0 91 2 165 4 165 2 0
23 -9 47 -20z m178 -397 c47 -36 66 -71 66 -123 0 -112 -114 -180 -215 -128
-108 56 -100 213 15 264 38 18 100 11 134 -13z m961 23 c0 -2 -9 -23 -20 -47
-12 -27 -20 -66 -20 -99 0 -33 8 -72 20 -99 11 -24 20 -45 20 -47 0 -2 -187
-4 -415 -4 -228 0 -415 2 -415 4 0 2 9 23 20 47 15 35 20 66 20 147 l0 102
395 0 c217 0 395 -2 395 -4z m289 -23 c47 -36 66 -71 66 -123 0 -112 -114
-180 -215 -128 -108 56 -100 213 15 264 38 18 100 11 134 -13z"/>
<path d="M10915 4226 c-99 -45 -152 -138 -143 -250 5 -63 13 -77 454 -842 316
-550 460 -791 489 -819 90 -88 250 -88 340 0 29 28 173 270 489 819 441 765
449 779 454 842 14 185 -151 316 -332 262 -80 -24 -112 -71 -446 -652 -173
-302 -320 -555 -326 -563 -9 -13 -75 97 -334 548 -344 600 -373 642 -456 667
-64 19 -133 15 -189 -12z m184 -103 c47 -36 66 -71 66 -123 0 -112 -114 -180
-215 -128 -108 56 -100 213 15 264 38 18 100 11 134 -13z m1730 0 c47 -36 66
-71 66 -123 0 -112 -114 -180 -215 -128 -108 56 -100 213 15 264 38 18 100 11
134 -13z m-1294 -719 c154 -267 281 -492 283 -498 1 -7 -35 -78 -81 -158 l-83
-147 -99 172 c-54 95 -203 353 -331 575 l-232 402 42 0 c55 0 134 38 174 84
17 20 32 41 32 46 0 6 3 10 8 10 4 0 133 -219 287 -486z m1034 422 c34 -38
117 -76 165 -76 28 0 37 -4 33 -14 -8 -20 -637 -1109 -647 -1119 -6 -7 -170
263 -170 280 0 5 526 922 557 972 15 23 16 23 26 5 5 -10 21 -32 36 -48z
m-669 -1056 c9 -18 8 -20 -15 -20 -23 0 -24 2 -13 20 7 11 14 20 15 20 1 0 7
-9 13 -20z m46 -139 c110 -50 113 -209 4 -263 -98 -50 -210 21 -210 132 0 57
29 104 80 131 44 24 74 24 126 0z"/>
<path d="M6015 2096 c-60 -28 -97 -66 -124 -126 -20 -44 -21 -62 -21 -850 0
-788 1 -806 21 -850 54 -120 181 -176 313 -138 34 10 91 62 354 322 l312 310
313 -310 c262 -260 319 -312 353 -322 207 -59 381 115 322 322 -10 34 -62 91
-322 354 l-310 312 310 313 c260 262 312 319 322 353 59 207 -115 381 -322
322 -35 -10 -120 -90 -603 -572 l-563 -561 0 475 0 475 -24 50 c-60 127 -206
180 -331 121z m184 -103 c47 -36 66 -71 66 -123 0 -112 -114 -180 -215 -128
-108 56 -100 213 15 264 38 18 100 11 134 -13z m1500 0 c47 -36 66 -71 66
-123 0 -112 -114 -180 -215 -128 -108 56 -100 213 15 264 38 18 100 11 134
-13z m-308 -223 c26 -61 92 -122 150 -139 l42 -13 -209 -209 c-115 -115 -213
-209 -219 -209 -6 0 -39 29 -75 65 -39 39 -83 72 -113 85 l-50 22 224 224
c123 123 225 224 226 224 1 0 12 -23 24 -50z m-1370 -130 c27 -12 66 -20 99
-20 33 0 72 8 99 20 24 11 45 20 47 20 2 0 4 -177 4 -393 l0 -392 -150 -150
-150 -150 0 543 c0 298 2 542 4 542 2 0 23 -9 47 -20z m928 -397 c47 -36 66
-71 66 -123 0 -112 -114 -180 -215 -128 -108 56 -100 213 15 264 38 18 100 11
134 -13z m-309 -220 c12 -28 50 -78 90 -118 l70 -70 -215 -215 -215 -215 0
210 0 210 122 122 c68 68 124 123 125 123 1 0 11 -21 23 -47z m733 -191 l209
-209 -48 -18 c-64 -24 -117 -75 -144 -137 l-22 -51 -211 211 -212 212 100 100
c55 55 104 100 110 100 6 0 104 -94 218 -208z m-1106 -248 c-2 -2 -25 5 -52
17 l-47 21 48 49 49 50 3 -67 c2 -36 1 -68 -1 -70z m-68 -91 c47 -36 66 -71
66 -123 0 -112 -114 -180 -215 -128 -108 56 -100 213 15 264 38 18 100 11 134
-13z m1500 0 c47 -36 66 -71 66 -123 0 -112 -114 -180 -215 -128 -108 56 -100
213 15 264 38 18 100 11 134 -13z"/>
<path d="M8459 2106 c-99 -35 -163 -128 -163 -236 0 -74 23 -127 75 -179 65
-66 66 -66 381 -69 l287 -3 3 -657 c3 -656 3 -657 25 -698 53 -100 117 -139
228 -139 111 0 175 39 228 139 22 41 22 42 25 698 l3 657 287 3 c315 3 316 3
381 69 102 101 102 257 0 358 -70 71 -6 66 -909 68 -653 2 -822 0 -851 -11z
m147 -105 c110 -50 113 -209 4 -263 -98 -50 -210 21 -210 132 0 57 29 104 80
131 44 24 74 24 126 0z m463 -23 c-18 -34 -23 -66 -27 -150 l-5 -108 -143 0
-144 0 22 43 c16 31 22 60 22 107 0 47 -6 76 -22 108 l-22 42 170 0 170 0 -21
-42z m287 23 c110 -50 113 -209 4 -263 -98 -50 -210 21 -210 132 0 57 29 104
80 131 44 24 74 24 126 0z m461 -28 c-29 -65 -28 -153 2 -210 l21 -43 -144 0
-144 0 -4 103 c-3 76 -9 114 -25 150 l-22 47 169 0 169 0 -22 -47z m289 28
c110 -50 113 -209 4 -263 -98 -50 -210 21 -210 132 0 57 29 104 80 131 44 24
74 24 126 0z m-666 -900 l0 -519 -50 19 c-64 24 -126 24 -190 0 l-50 -19 0
519 0 519 145 0 145 0 0 -519z m-84 -600 c110 -50 113 -209 4 -263 -98 -50
-210 21 -210 132 0 57 29 104 80 131 44 24 74 24 126 0z"/>
</g>
</svg>
